<?xml version="1.0" encoding="UTF-8"?>
<!DOCTYPE svg PUBLIC "-//W3C//DTD SVG 1.1//EN" "http://www.w3.org/Graphics/SVG/1.1/DTD/svg11.dtd">
<svg xmlns="http://www.w3.org/2000/svg" version="1.1" width="502px" height="248px" style="shape-rendering:geometricPrecision; text-rendering:geometricPrecision; image-rendering:optimizeQuality; fill-rule:evenodd; clip-rule:evenodd" xmlns:xlink="http://www.w3.org/1999/xlink">
<g><path style="opacity:1" fill="#ff8904" d="M 300.5,72.5 C 301.488,73.795 302.488,75.1283 303.5,76.5C 313.892,90.6123 327.892,99.1123 345.5,102C 354.418,103.709 363.418,104.709 372.5,105C 373.167,105.333 373.833,105.667 374.5,106C 359.888,107.599 345.222,107.932 330.5,107C 301.472,102.079 279.639,86.9119 265,61.5C 264.408,57.7235 263.408,54.0569 262,50.5C 250.636,67.2828 235.469,79.4495 216.5,87C 210.8,88.4006 205.133,89.9006 199.5,91.5C 197.729,90.9646 197.396,90.1313 198.5,89C 208.114,83.3606 216.781,76.5273 224.5,68.5C 223.398,67.8243 222.398,67.1577 221.5,66.5C 221.369,65.6236 221.702,64.9569 222.5,64.5C 225.37,64.5866 228.203,64.5866 231,64.5C 232.267,62.1856 233.434,59.8522 234.5,57.5C 246.877,41.4167 257.211,24.0833 265.5,5.5C 272.967,21.7721 280.467,38.1054 288,54.5C 291.585,60.0021 294.919,65.6688 298,71.5C 298.671,72.2524 299.504,72.5858 300.5,72.5 Z"/></g>
<g><path style="opacity:1" fill="#ff8904" d="M 234.5,57.5 C 233.434,59.8522 232.267,62.1856 231,64.5C 228.203,64.5866 225.37,64.5866 222.5,64.5C 221.702,64.9569 221.369,65.6236 221.5,66.5C 210.238,60.7292 202.738,51.7292 199,39.5C 190.853,51.6553 179.686,59.4887 165.5,63C 163.833,63.6667 162.167,63.6667 160.5,63C 170.253,56.5826 178.753,48.7493 186,39.5C 191.672,30.8262 196.839,21.8262 201.5,12.5C 207.136,25.8941 213.636,38.8941 221,51.5C 223.647,55.3135 226.813,58.6469 230.5,61.5C 231.521,59.812 232.855,58.4787 234.5,57.5 Z"/></g>
<g><path style="opacity:1" fill="#ff8904" d="M 303.5,76.5 C 302.488,75.1283 301.488,73.795 300.5,72.5C 312.896,60.0522 322.563,45.7188 329.5,29.5C 334.556,39.2821 339.39,49.2821 344,59.5C 349.666,71.2572 358.5,79.7572 370.5,85C 378.803,87.2293 387.137,88.896 395.5,90C 379.496,93.0468 364.162,91.0468 349.5,84C 339.076,77.742 331.743,68.9087 327.5,57.5C 321.231,66.1119 313.231,72.4452 303.5,76.5 Z"/></g>
<g><path style="opacity:0.966" fill="#ffffff" d="M 26.5,117.5 C 33.8041,117.199 40.9708,117.866 48,119.5C 48.5177,124.057 47.8511,128.391 46,132.5C 45.4814,123.471 40.6481,119.471 31.5,120.5C 17.8677,121.506 11.201,129.006 11.5,143C 12.3194,161.163 21.6527,169.163 39.5,167C 40.637,161.918 40.8037,156.751 40,151.5C 37.9592,150.577 35.7925,150.244 33.5,150.5C 33.5,149.5 33.5,148.5 33.5,147.5C 39.5219,148.683 45.5219,148.683 51.5,147.5C 52.3857,148.325 52.719,149.325 52.5,150.5C 50.549,150.227 49.049,150.893 48,152.5C 46.9752,157.402 47.4752,162.069 49.5,166.5C 37.4711,171.956 25.4711,171.789 13.5,166C 3.67425,156.526 1.17425,145.359 6,132.5C 10.4699,124.19 17.3033,119.19 26.5,117.5 Z"/></g>
<g><path style="opacity:0.953" fill="#ffffff" d="M 263.5,117.5 C 268.899,117.309 274.233,117.809 279.5,119C 278.822,122.893 277.822,126.726 276.5,130.5C 275.113,120.637 269.78,117.803 260.5,122C 256.637,127.469 257.304,132.469 262.5,137C 267.85,140.008 272.85,143.508 277.5,147.5C 282.658,158.186 279.658,165.686 268.5,170C 263.011,170.932 257.677,170.432 252.5,168.5C 251.056,164.776 250.056,160.943 249.5,157C 250,156.5 250.5,156 251,155.5C 253.321,165.484 259.488,169.317 269.5,167C 273.671,163.146 274.504,158.646 272,153.5C 266.846,149.257 261.512,145.257 256,141.5C 249.044,130.401 251.544,122.401 263.5,117.5 Z"/></g>
<g><path style="opacity:0.934" fill="#ffffff" d="M 116.5,121.5 C 115.18,124.428 114.514,127.761 114.5,131.5C 114.502,135.018 114.835,138.351 115.5,141.5C 120.179,141.666 124.845,141.499 129.5,141C 132.968,133.65 134.301,134.317 133.5,143C 133.618,146.027 133.118,148.861 132,151.5C 131.163,149.649 130.329,147.816 129.5,146C 124.845,145.501 120.179,145.334 115.5,145.5C 115.17,152.2 115.503,158.866 116.5,165.5C 126.801,169.285 134.135,166.285 138.5,156.5C 139.217,160.956 138.217,165.122 135.5,169C 128.667,169.167 121.833,169.333 115,169.5C 106.774,169.601 98.6076,169.101 90.5,168C 84.6446,161.788 79.6446,154.955 75.5,147.5C 73.2573,146.526 70.924,146.192 68.5,146.5C 69.0543,153.153 69.3877,159.82 69.5,166.5C 71.6957,166.565 73.6957,167.232 75.5,168.5C 71.2172,169.492 66.8839,169.826 62.5,169.5C 60.5,168.833 58.5,168.167 56.5,167.5C 60.3092,167.466 62.1425,165.466 62,161.5C 62.7583,148.141 62.5917,134.808 61.5,121.5C 59.3043,121.435 57.3043,120.768 55.5,119.5C 63.8134,118.335 72.1467,118.168 80.5,119C 89.5956,121.464 92.7623,127.297 90,136.5C 87.8333,140 85,142.833 81.5,145C 86.4388,152.604 92.1055,159.604 98.5,166C 101.396,167.698 104.396,167.864 107.5,166.5C 108.816,151.493 108.816,136.493 107.5,121.5C 105.304,121.435 103.304,120.768 101.5,119.5C 113.152,118.334 124.819,118.167 136.5,119C 136.041,123.01 135.041,126.843 133.5,130.5C 132.574,127.956 131.574,125.456 130.5,123C 125.915,121.775 121.248,121.275 116.5,121.5 Z M 69.5,121.5 C 78.2658,120.539 83.2658,124.372 84.5,133C 83.1051,142.211 77.7717,145.711 68.5,143.5C 68.8333,136.167 69.1667,128.833 69.5,121.5 Z"/></g>
<g><path style="opacity:0.973" fill="#ffffff" d="M 188.5,117.5 C 203.467,118.136 218.467,118.802 233.5,119.5C 232.868,123.595 231.868,127.595 230.5,131.5C 229.686,128.581 228.686,125.748 227.5,123C 222.845,122.501 218.179,122.334 213.5,122.5C 213.216,137.202 213.55,151.869 214.5,166.5C 216.696,166.565 218.696,167.232 220.5,168.5C 213.167,169.833 205.833,169.833 198.5,168.5C 201.413,167.817 203.913,166.483 206,164.5C 206.5,150.171 206.667,135.837 206.5,121.5C 201.657,121.117 196.991,121.783 192.5,123.5C 191.162,126.176 189.829,128.842 188.5,131.5C 187.82,126.88 187.82,122.213 188.5,117.5 Z"/></g>
<g><path style="opacity:0.921" fill="#ffffff" d="M 285.5,118.5 C 291.868,118.17 298.202,118.504 304.5,119.5C 302.441,120.567 300.608,121.9 299,123.5C 298.501,129.491 298.334,135.491 298.5,141.5C 307.5,141.5 316.5,141.5 325.5,141.5C 325.666,135.491 325.499,129.491 325,123.5C 323.392,121.9 321.559,120.567 319.5,119.5C 325.833,118.167 332.167,118.167 338.5,119.5C 336.821,120.782 334.987,121.782 333,122.5C 332.333,136.833 332.333,151.167 333,165.5C 334.78,166.594 336.614,167.594 338.5,168.5C 332.167,169.833 325.833,169.833 319.5,168.5C 321.805,167.769 323.638,166.436 325,164.5C 325.5,158.175 325.666,151.842 325.5,145.5C 316.5,145.5 307.5,145.5 298.5,145.5C 298.28,152.543 298.614,159.543 299.5,166.5C 301.564,166.687 303.564,167.187 305.5,168C 305.167,168.333 304.833,168.667 304.5,169C 298.141,169.831 291.807,169.664 285.5,168.5C 287.179,167.218 289.013,166.218 291,165.5C 291.667,151.167 291.667,136.833 291,122.5C 289.559,121.74 288.059,121.074 286.5,120.5C 285.702,120.043 285.369,119.376 285.5,118.5 Z"/></g>
<g><path style="opacity:0.958" fill="#ffffff" d="M 342.5,118.5 C 348.868,118.17 355.202,118.504 361.5,119.5C 359.821,120.782 357.987,121.782 356,122.5C 355.333,136.833 355.333,151.167 356,165.5C 358.052,166.723 360.219,167.723 362.5,168.5C 355.833,169.833 349.167,169.833 342.5,168.5C 344.805,167.769 346.638,166.436 348,164.5C 348.667,150.5 348.667,136.5 348,122.5C 346.559,121.74 345.059,121.074 343.5,120.5C 342.702,120.043 342.369,119.376 342.5,118.5 Z"/></g>
<g><path style="opacity:0.936" fill="#ffffff" d="M 365.5,118.5 C 376.833,118.5 388.167,118.5 399.5,118.5C 399.16,122.548 398.494,126.548 397.5,130.5C 396.051,128.389 395.051,126.056 394.5,123.5C 389.589,121.472 384.589,121.138 379.5,122.5C 378.504,128.798 378.17,135.132 378.5,141.5C 383.511,141.666 388.511,141.499 393.5,141C 394.11,139.053 394.943,137.219 396,135.5C 396.87,136.108 397.37,136.941 397.5,138C 396.916,142.501 396.249,147.001 395.5,151.5C 394.682,149.892 394.015,148.225 393.5,146.5C 388.544,145.506 383.544,145.173 378.5,145.5C 378.334,151.842 378.5,158.175 379,164.5C 379.75,165.126 380.584,165.626 381.5,166C 385.833,166.667 390.167,166.667 394.5,166C 395.931,165.535 397.097,164.701 398,163.5C 399.08,161.004 400.414,158.67 402,156.5C 402.692,157.025 403.192,157.692 403.5,158.5C 402.235,161.796 401.068,165.129 400,168.5C 387.896,169.821 375.729,169.821 363.5,168.5C 366.145,167.808 368.645,166.808 371,165.5C 371.667,151.167 371.667,136.833 371,122.5C 369.559,121.74 368.059,121.074 366.5,120.5C 365.702,120.043 365.369,119.376 365.5,118.5 Z"/></g>
<g><path style="opacity:0.962" fill="#ffffff" d="M 406.5,118.5 C 412.868,118.17 419.202,118.504 425.5,119.5C 423.821,120.782 421.987,121.782 420,122.5C 419.333,136.5 419.333,150.5 420,164.5C 420.5,165 421,165.5 421.5,166C 433.029,169.654 440.529,165.821 444,154.5C 444.692,155.025 445.192,155.692 445.5,156.5C 444.508,160.985 442.841,165.152 440.5,169C 428.819,169.833 417.152,169.666 405.5,168.5C 407.781,167.723 409.948,166.723 412,165.5C 412.667,151.167 412.667,136.833 412,122.5C 409.929,121.475 407.762,120.642 405.5,120C 406.056,119.617 406.389,119.117 406.5,118.5 Z"/></g>
<g><path style="opacity:0.973" fill="#ffffff" d="M 447.5,118.5 C 457.506,118.334 467.506,118.5 477.5,119C 492.705,122.901 499.205,132.734 497,148.5C 494.055,159.779 486.888,166.612 475.5,169C 465.816,169.832 456.149,169.665 446.5,168.5C 448.632,167.402 450.798,166.402 453,165.5C 453.667,151.167 453.667,136.833 453,122.5C 450.929,121.475 448.762,120.642 446.5,120C 447.056,119.617 447.389,119.117 447.5,118.5 Z M 461.5,121.5 C 479.093,119.28 488.426,126.946 489.5,144.5C 489.243,161.266 480.909,168.433 464.5,166C 462.667,165.5 461.5,164.333 461,162.5C 460.186,148.758 460.353,135.092 461.5,121.5 Z"/></g>
<g><path style="opacity:0.957" fill="#ffffff" d="M 161.5,118.5 C 163.467,118.261 165.301,118.594 167,119.5C 171.91,135.233 177.41,150.733 183.5,166C 185.221,166.739 186.887,167.573 188.5,168.5C 182.167,169.833 175.833,169.833 169.5,168.5C 171.517,167.781 173.183,166.614 174.5,165C 172.523,159.572 170.857,154.072 169.5,148.5C 164.5,148.5 159.5,148.5 154.5,148.5C 152.849,153.812 151.182,159.145 149.5,164.5C 151.128,166.319 153.128,167.653 155.5,168.5C 149.5,169.833 143.5,169.833 137.5,168.5C 142.349,167.816 145.516,165.15 147,160.5C 152.344,146.635 157.177,132.635 161.5,118.5 Z M 161.5,127.5 C 164.471,133.079 166.471,139.079 167.5,145.5C 163.833,145.5 160.167,145.5 156.5,145.5C 158.167,139.5 159.833,133.5 161.5,127.5 Z"/></g>
<g><path style="opacity:0.094" fill="#aeaeae" d="M 116.5,121.5 C 115.54,128.078 115.207,134.745 115.5,141.5C 114.835,138.351 114.502,135.018 114.5,131.5C 114.514,127.761 115.18,124.428 116.5,121.5 Z"/></g>
<g><path style="opacity:0.188" fill="#777777" d="M 56.5,167.5 C 58.5,168.167 60.5,168.833 62.5,169.5C 60.076,169.808 57.7427,169.474 55.5,168.5C 55.6236,167.893 55.9569,167.56 56.5,167.5 Z"/></g>
<g><path style="opacity:0.962" fill="#ffffff" d="M 338.5,195.5 C 337.833,189.654 337.167,183.654 336.5,177.5C 335.832,179.969 335.165,182.302 334.5,184.5C 334.5,182.167 334.5,179.833 334.5,177.5C 330.842,176.68 328.509,178.013 327.5,181.5C 326.165,179.353 326.331,177.353 328,175.5C 334,176.833 340,176.833 346,175.5C 346.808,177.579 346.641,179.579 345.5,181.5C 344.491,178.013 342.158,176.68 338.5,177.5C 338.5,183.5 338.5,189.5 338.5,195.5 Z"/></g>
<g><path style="opacity:0.945" fill="#ffffff" d="M 316.5,175.5 C 318.527,175.338 320.527,175.505 322.5,176C 324.982,177.594 325.148,179.428 323,181.5C 322.31,177.81 320.143,176.643 316.5,178C 315.446,179.388 315.28,180.888 316,182.5C 318.854,184.598 321.521,186.931 324,189.5C 324.498,198.262 320.498,200.929 312,197.5C 311.333,195.833 311.333,194.167 312,192.5C 313.634,197.147 316.634,198.48 321,196.5C 321.667,194.833 321.667,193.167 321,191.5C 317.986,189.481 315.32,187.148 313,184.5C 311.665,180.392 312.832,177.392 316.5,175.5 Z"/></g>
<g><path style="opacity:0.89" fill="#ffffff" d="M 338.5,195.5 C 339.058,196.79 340.058,197.623 341.5,198C 338.167,198.667 334.833,198.667 331.5,198C 332.416,197.626 333.25,197.126 334,196.5C 334.499,192.514 334.666,188.514 334.5,184.5C 335.165,182.302 335.832,179.969 336.5,177.5C 337.167,183.654 337.833,189.654 338.5,195.5 Z"/></g>
<g><path style="opacity:0.865" fill="#ffffff" d="M 347.5,177.5 C 351.646,176.353 355.98,176.186 360.5,177C 364.657,180.931 364.323,184.598 359.5,188C 362.184,192.086 365.518,195.419 369.5,198C 366.534,198.895 363.867,198.395 361.5,196.5C 359.853,193.527 357.853,190.86 355.5,188.5C 355.167,190 354.833,191.5 354.5,193C 354.629,194.981 355.296,196.647 356.5,198C 353.5,198.667 350.5,198.667 347.5,198C 348.416,197.626 349.25,197.126 350,196.5C 350.5,190.175 350.666,183.842 350.5,177.5C 349.5,177.5 348.5,177.5 347.5,177.5 Z M 354.5,177.5 C 357.887,177.716 359.887,179.55 360.5,183C 359.779,186.195 357.779,187.695 354.5,187.5C 354.5,184.167 354.5,180.833 354.5,177.5 Z"/></g>
<g><path style="opacity:0.957" fill="#ffffff" d="M 367.5,177.5 C 370.304,176.362 373.304,176.195 376.5,177C 375.584,177.374 374.75,177.874 374,178.5C 373.333,182.833 373.333,187.167 374,191.5C 374.498,195 376.498,196.667 380,196.5C 382.034,196.646 383.701,195.98 385,194.5C 385.167,191.667 385.333,188.833 385.5,186C 385.442,182.724 384.776,179.724 383.5,177C 385.833,176.333 388.167,176.333 390.5,177C 389.042,183.391 387.542,189.891 386,196.5C 382.405,198.456 378.572,198.956 374.5,198C 372.667,197.5 371.5,196.333 371,194.5C 370.501,188.843 370.334,183.176 370.5,177.5C 369.5,177.5 368.5,177.5 367.5,177.5 Z"/></g>
<g><path style="opacity:0.796" fill="#ffffff" d="M 414.5,175.5 C 420.667,176.814 426.834,176.814 433,175.5C 433.808,177.579 433.641,179.579 432.5,181.5C 431.491,178.013 429.158,176.68 425.5,177.5C 425.334,183.842 425.5,190.175 426,196.5C 426.75,197.126 427.584,197.626 428.5,198C 425.167,198.667 421.833,198.667 418.5,198C 419.416,197.626 420.25,197.126 421,196.5C 421.5,190.175 421.666,183.842 421.5,177.5C 417.842,176.68 415.509,178.013 414.5,181.5C 413.481,179.54 413.481,177.54 414.5,175.5 Z"/></g>
<g><path style="opacity:0.955" fill="#ffffff" d="M 434.5,177.5 C 437.304,176.362 440.304,176.195 443.5,177C 442.333,177.5 441.5,178.333 441,179.5C 440.333,184.833 440.333,190.167 441,195.5C 441.772,196.849 442.939,197.682 444.5,198C 441.167,198.667 437.833,198.667 434.5,198C 435.416,197.626 436.25,197.126 437,196.5C 437.5,190.175 437.666,183.842 437.5,177.5C 436.5,177.5 435.5,177.5 434.5,177.5 Z"/></g>
<g><path style="opacity:0.873" fill="#ffffff" d="M 469.5,177.5 C 471.288,176.378 473.288,176.211 475.5,177C 480.378,182.209 484.878,187.709 489,193.5C 489.609,188.139 489.442,182.805 488.5,177.5C 486.294,176.416 487.627,176.249 492.5,177C 491.708,182.434 491.041,187.934 490.5,193.5C 490.621,194.894 490.954,196.228 491.5,197.5C 490.833,197.833 490.167,198.167 489.5,198.5C 484.163,193.325 479.33,187.658 475,181.5C 474.333,186.167 474.333,190.833 475,195.5C 475.903,196.701 477.069,197.535 478.5,198C 475.5,198.667 472.5,198.667 469.5,198C 470.416,197.626 471.25,197.126 472,196.5C 472.5,190.175 472.666,183.842 472.5,177.5C 471.5,177.5 470.5,177.5 469.5,177.5 Z"/></g>
<g><path style="opacity:0.968" fill="#ffffff" d="M 273.5,175.5 C 276.187,175.336 278.854,175.503 281.5,176C 283.604,177.836 283.938,180.002 282.5,182.5C 281.756,181.009 281.09,179.509 280.5,178C 277.036,177.183 273.702,177.517 270.5,179C 268.504,183.271 268.004,187.771 269,192.5C 274.035,199.044 279.035,199.044 284,192.5C 284.14,194.256 283.64,195.922 282.5,197.5C 269.023,201.182 263.189,196.182 265,182.5C 266.851,178.843 269.684,176.51 273.5,175.5 Z"/></g>
<g><path style="opacity:0.979" fill="#ffffff" d="M 295.5,175.5 C 306.975,175.782 311.142,181.448 308,192.5C 304.723,198.109 299.89,199.942 293.5,198C 286.211,193.37 284.711,187.203 289,179.5C 291.095,177.875 293.261,176.542 295.5,175.5 Z M 294.5,177.5 C 299.988,176.817 303.488,179.151 305,184.5C 306.439,189.857 304.939,194.024 300.5,197C 295.499,197.684 292.332,195.517 291,190.5C 289.668,185.372 290.835,181.039 294.5,177.5 Z"/></g>
<g><path style="opacity:0.992" fill="#ffffff" d="M 401.5,175.5 C 404.579,175.26 407.579,175.593 410.5,176.5C 411.641,178.421 411.808,180.421 411,182.5C 409.98,181.109 409.147,179.609 408.5,178C 400.353,175.48 396.019,178.48 395.5,187C 396.116,195.466 400.449,198.632 408.5,196.5C 409.5,195.167 410.5,193.833 411.5,192.5C 412.229,194.595 411.563,196.428 409.5,198C 396.504,200.669 391.004,195.502 393,182.5C 394.851,178.843 397.684,176.51 401.5,175.5 Z"/></g>
<g><path style="opacity:0.949" fill="#ffffff" d="M 454.5,175.5 C 465.973,175.776 470.139,181.442 467,192.5C 463.723,198.109 458.89,199.942 452.5,198C 445.197,193.398 443.697,187.231 448,179.5C 450.095,177.875 452.261,176.542 454.5,175.5 Z M 453.5,177.5 C 458.988,176.817 462.488,179.151 464,184.5C 465.439,189.857 463.939,194.024 459.5,197C 454.057,197.57 450.89,195.07 450,189.5C 448.746,184.695 449.913,180.695 453.5,177.5 Z"/></g>
</svg>
